<mxfile host="app.diagrams.net" modified="2024-03-14T10:07:51.388Z" agent="Mozilla/5.0 (Windows NT 10.0; Win64; x64) AppleWebKit/537.36 (KHTML, like Gecko) Chrome/122.0.0.0 Safari/537.36" etag="SHTw_0mhh11Lrwsc-G0G" version="24.0.6" type="device">
  <diagram id="xqs5KKzRLcflo9ZkjbXo" name="Pagina-1">
    <mxGraphModel dx="1050" dy="569" grid="1" gridSize="10" guides="1" tooltips="1" connect="1" arrows="1" fold="1" page="1" pageScale="1" pageWidth="1169" pageHeight="826" math="0" shadow="0">
      <root>
        <mxCell id="0" />
        <mxCell id="1" parent="0" />
        <mxCell id="y_OlSuZiI7DkMi86MfuV-1" value="foaf:Person" style="graphMlID=n4;shape=rect;rounded=1;arcsize=30;fillColor=#ffff00;strokeColor=#000000;strokeWidth=1.0" parent="1" vertex="1">
          <mxGeometry x="400" y="190" width="90" height="54" as="geometry" />
        </mxCell>
        <mxCell id="y_OlSuZiI7DkMi86MfuV-2" value="db:Entity" style="graphMlID=n4;shape=rect;rounded=1;arcsize=30;fillColor=#ffff00;strokeColor=#000000;strokeWidth=1.0" parent="1" vertex="1">
          <mxGeometry x="630" y="350" width="90" height="54" as="geometry" />
        </mxCell>
        <mxCell id="y_OlSuZiI7DkMi86MfuV-4" value="Feature" style="graphMlID=n4;shape=rect;rounded=1;arcsize=30;fillColor=#ffff00;strokeColor=#000000;strokeWidth=1.0" parent="1" vertex="1">
          <mxGeometry x="630" y="510" width="90" height="54" as="geometry" />
        </mxCell>
        <mxCell id="y_OlSuZiI7DkMi86MfuV-15" value="cbo:Known&#xa;feature" style="graphMlID=n4;shape=rect;rounded=1;arcsize=30;fillColor=#ffff00;strokeColor=#000000;strokeWidth=1.0" parent="1" vertex="1">
          <mxGeometry x="400" y="510" width="90" height="54" as="geometry" />
        </mxCell>
        <mxCell id="y_OlSuZiI7DkMi86MfuV-16" value="cbo:Un-known&#xa;feature" style="graphMlID=n4;shape=rect;rounded=1;arcsize=30;fillColor=#ffff00;strokeColor=#000000;strokeWidth=1.0" parent="1" vertex="1">
          <mxGeometry x="840" y="510" width="90" height="54" as="geometry" />
        </mxCell>
        <mxCell id="YJrsoGPwztKFer1XiHZF-6" value="db:Knowledge" style="graphMlID=n4;shape=rect;rounded=1;arcsize=30;fillColor=#ffff00;strokeColor=#000000;strokeWidth=1.0" parent="1" vertex="1">
          <mxGeometry x="400" y="350" width="90" height="54" as="geometry" />
        </mxCell>
        <mxCell id="YJrsoGPwztKFer1XiHZF-12" value="fs:Perception&#xa;experience" style="graphMlID=n4;shape=rect;rounded=1;arcsize=30;fillColor=#ffff00;strokeColor=#000000;strokeWidth=1.0" parent="1" vertex="1">
          <mxGeometry x="630" y="190" width="90" height="54" as="geometry" />
        </mxCell>
        <mxCell id="FyRuQgIOp2cZwO5rzVj5-21" value="" style="graphMlID=e0;rounded=0;endArrow=block;strokeColor=#000080;strokeWidth=1.0;startArrow=oval;startFill=1;endFill=1;entryX=0.5;entryY=0;entryDx=0;entryDy=0;" parent="1" source="y_OlSuZiI7DkMi86MfuV-3" target="y_OlSuZiI7DkMi86MfuV-16" edge="1">
          <mxGeometry relative="1" as="geometry">
            <mxPoint x="481.97" y="101.58183758898736" as="sourcePoint" />
            <mxPoint x="880" y="500" as="targetPoint" />
            <Array as="points">
              <mxPoint x="885" y="97" />
            </Array>
          </mxGeometry>
        </mxCell>
        <mxCell id="FyRuQgIOp2cZwO5rzVj5-23" value="" style="graphMlID=e0;rounded=0;endArrow=block;strokeColor=#000080;strokeWidth=1.0;startArrow=oval;startFill=1;endFill=1;exitX=0;exitY=0.5;exitDx=0;exitDy=0;entryX=0;entryY=0.5;entryDx=0;entryDy=0;" parent="1" source="y_OlSuZiI7DkMi86MfuV-3" target="y_OlSuZiI7DkMi86MfuV-15" edge="1">
          <mxGeometry relative="1" as="geometry">
            <mxPoint x="80" y="160.08183758898736" as="sourcePoint" />
            <mxPoint x="260" y="790" as="targetPoint" />
            <Array as="points">
              <mxPoint x="260" y="97" />
              <mxPoint x="260" y="537" />
            </Array>
          </mxGeometry>
        </mxCell>
        <mxCell id="FyRuQgIOp2cZwO5rzVj5-24" value="&lt;span style=&quot;color: rgb(0, 0, 128); font-family: dialog; background-color: rgb(248, 249, 250);&quot;&gt;&lt;font style=&quot;font-size: 14px;&quot;&gt;cbo:support&lt;/font&gt;&lt;/span&gt;" style="text;html=1;align=center;verticalAlign=middle;resizable=0;points=[];labelBackgroundColor=#ffffff;" parent="FyRuQgIOp2cZwO5rzVj5-23" vertex="1" connectable="0">
          <mxGeometry x="-0.0174" y="2" relative="1" as="geometry">
            <mxPoint x="-2" y="-31" as="offset" />
          </mxGeometry>
        </mxCell>
        <mxCell id="FyRuQgIOp2cZwO5rzVj5-25" value="" style="graphMlID=e0;rounded=0;endArrow=block;strokeColor=#000080;strokeWidth=1.0;startArrow=oval;startFill=1;endFill=1;entryX=0;entryY=0.5;entryDx=0;entryDy=0;exitX=1;exitY=0.5;exitDx=0;exitDy=0;" parent="1" source="y_OlSuZiI7DkMi86MfuV-1" target="YJrsoGPwztKFer1XiHZF-12" edge="1">
          <mxGeometry relative="1" as="geometry">
            <mxPoint x="481.97" y="221.58183758898736" as="sourcePoint" />
            <mxPoint x="600" y="222" as="targetPoint" />
          </mxGeometry>
        </mxCell>
        <mxCell id="FyRuQgIOp2cZwO5rzVj5-26" value="&lt;span style=&quot;color: rgb(0, 0, 128); font-family: dialog; background-color: rgb(248, 249, 250);&quot;&gt;&lt;font style=&quot;font-size: 14px;&quot;&gt;exob:isEngagedIn&lt;/font&gt;&lt;/span&gt;" style="text;html=1;align=center;verticalAlign=middle;resizable=0;points=[];labelBackgroundColor=#ffffff;" parent="FyRuQgIOp2cZwO5rzVj5-25" vertex="1" connectable="0">
          <mxGeometry x="-0.0174" y="2" relative="1" as="geometry">
            <mxPoint y="5" as="offset" />
          </mxGeometry>
        </mxCell>
        <mxCell id="FyRuQgIOp2cZwO5rzVj5-28" value="" style="graphMlID=e0;rounded=0;endArrow=block;strokeColor=#000080;strokeWidth=1.0;startArrow=oval;startFill=1;endFill=1;exitX=0;exitY=0.5;exitDx=0;exitDy=0;entryX=1;entryY=0.5;entryDx=0;entryDy=0;" parent="1" source="y_OlSuZiI7DkMi86MfuV-16" target="y_OlSuZiI7DkMi86MfuV-4" edge="1">
          <mxGeometry relative="1" as="geometry">
            <mxPoint x="280" y="430.08183758898736" as="sourcePoint" />
            <mxPoint x="431" y="430" as="targetPoint" />
          </mxGeometry>
        </mxCell>
        <mxCell id="FyRuQgIOp2cZwO5rzVj5-29" value="&lt;span style=&quot;color: rgb(0, 0, 128); font-family: dialog; background-color: rgb(248, 249, 250);&quot;&gt;&lt;font style=&quot;font-size: 14px;&quot;&gt;rdfs:subclassof&lt;/font&gt;&lt;/span&gt;" style="text;html=1;align=center;verticalAlign=middle;resizable=0;points=[];labelBackgroundColor=#ffffff;" parent="FyRuQgIOp2cZwO5rzVj5-28" vertex="1" connectable="0">
          <mxGeometry x="-0.0174" y="2" relative="1" as="geometry">
            <mxPoint y="-2" as="offset" />
          </mxGeometry>
        </mxCell>
        <mxCell id="FyRuQgIOp2cZwO5rzVj5-30" value="" style="graphMlID=e0;rounded=0;endArrow=block;strokeColor=#000080;strokeWidth=1.0;startArrow=oval;startFill=1;endFill=1;exitX=0.976;exitY=0.498;exitDx=0;exitDy=0;exitPerimeter=0;entryX=0;entryY=0.498;entryDx=0;entryDy=0;entryPerimeter=0;" parent="1" source="y_OlSuZiI7DkMi86MfuV-15" target="y_OlSuZiI7DkMi86MfuV-4" edge="1">
          <mxGeometry relative="1" as="geometry">
            <mxPoint x="491.97" y="541.5018375889873" as="sourcePoint" />
            <mxPoint x="620" y="541.92" as="targetPoint" />
          </mxGeometry>
        </mxCell>
        <mxCell id="FyRuQgIOp2cZwO5rzVj5-31" value="&lt;span style=&quot;color: rgb(0, 0, 128); font-family: dialog; background-color: rgb(248, 249, 250);&quot;&gt;&lt;font style=&quot;font-size: 14px;&quot;&gt;rdfs:subclassof&lt;/font&gt;&lt;/span&gt;" style="text;html=1;align=center;verticalAlign=middle;resizable=0;points=[];labelBackgroundColor=#ffffff;" parent="FyRuQgIOp2cZwO5rzVj5-30" vertex="1" connectable="0">
          <mxGeometry x="-0.0174" y="2" relative="1" as="geometry">
            <mxPoint as="offset" />
          </mxGeometry>
        </mxCell>
        <mxCell id="FyRuQgIOp2cZwO5rzVj5-32" value="" style="graphMlID=e0;rounded=0;endArrow=block;strokeColor=#000080;strokeWidth=1.0;startArrow=oval;startFill=1;endFill=1;entryX=0.5;entryY=1;entryDx=0;entryDy=0;exitX=0.5;exitY=0;exitDx=0;exitDy=0;" parent="1" source="y_OlSuZiI7DkMi86MfuV-15" target="YJrsoGPwztKFer1XiHZF-6" edge="1">
          <mxGeometry relative="1" as="geometry">
            <mxPoint x="320" y="430.08183758898736" as="sourcePoint" />
            <mxPoint x="471" y="430" as="targetPoint" />
          </mxGeometry>
        </mxCell>
        <mxCell id="FyRuQgIOp2cZwO5rzVj5-33" value="&lt;span style=&quot;color: rgb(0 , 0 , 128) ; font-family: &amp;quot;dialog&amp;quot; ; font-size: 16px ; background-color: rgb(248 , 249 , 250)&quot;&gt;rdfs:subclassof&lt;/span&gt;" style="text;html=1;align=center;verticalAlign=middle;resizable=0;points=[];labelBackgroundColor=#ffffff;" parent="FyRuQgIOp2cZwO5rzVj5-32" vertex="1" connectable="0">
          <mxGeometry x="-0.0174" y="2" relative="1" as="geometry">
            <mxPoint as="offset" />
          </mxGeometry>
        </mxCell>
        <mxCell id="FyRuQgIOp2cZwO5rzVj5-34" value="" style="graphMlID=e0;rounded=0;endArrow=block;strokeColor=#000080;strokeWidth=1.0;startArrow=oval;startFill=1;endFill=1;exitX=0;exitY=0;exitDx=0;exitDy=0;entryX=1;entryY=1;entryDx=0;entryDy=0;" parent="1" source="YJrsoGPwztKFer1XiHZF-12" target="y_OlSuZiI7DkMi86MfuV-3" edge="1">
          <mxGeometry relative="1" as="geometry">
            <mxPoint x="540" y="40.081837588987355" as="sourcePoint" />
            <mxPoint x="691" y="40" as="targetPoint" />
          </mxGeometry>
        </mxCell>
        <mxCell id="FyRuQgIOp2cZwO5rzVj5-35" value="&lt;span style=&quot;color: rgb(0, 0, 128); font-family: dialog; background-color: rgb(248, 249, 250);&quot;&gt;&lt;font style=&quot;font-size: 14px;&quot;&gt;actpat:produces&lt;/font&gt;&lt;/span&gt;" style="text;html=1;align=center;verticalAlign=middle;resizable=0;points=[];labelBackgroundColor=#ffffff;" parent="FyRuQgIOp2cZwO5rzVj5-34" vertex="1" connectable="0">
          <mxGeometry x="-0.0174" y="2" relative="1" as="geometry">
            <mxPoint as="offset" />
          </mxGeometry>
        </mxCell>
        <mxCell id="FyRuQgIOp2cZwO5rzVj5-36" value="" style="graphMlID=e0;rounded=0;endArrow=block;strokeColor=#000080;strokeWidth=1.0;startArrow=oval;startFill=1;endFill=1;exitX=0;exitY=0.5;exitDx=0;exitDy=0;entryX=0.5;entryY=1;entryDx=0;entryDy=0;" parent="1" source="YJrsoGPwztKFer1XiHZF-6" target="y_OlSuZiI7DkMi86MfuV-3" edge="1">
          <mxGeometry relative="1" as="geometry">
            <mxPoint x="70" y="216.58183758898736" as="sourcePoint" />
            <mxPoint x="480" y="160" as="targetPoint" />
            <Array as="points">
              <mxPoint x="360" y="377" />
              <mxPoint x="360" y="160" />
              <mxPoint x="445" y="160" />
            </Array>
          </mxGeometry>
        </mxCell>
        <mxCell id="FyRuQgIOp2cZwO5rzVj5-37" value="&lt;span style=&quot;color: rgb(0, 0, 128); font-family: dialog; background-color: rgb(248, 249, 250);&quot;&gt;&lt;font style=&quot;font-size: 14px;&quot;&gt;fao:affects&lt;/font&gt;&lt;/span&gt;" style="text;html=1;align=center;verticalAlign=middle;resizable=0;points=[];labelBackgroundColor=#ffffff;" parent="FyRuQgIOp2cZwO5rzVj5-36" vertex="1" connectable="0">
          <mxGeometry x="-0.0174" y="2" relative="1" as="geometry">
            <mxPoint y="7" as="offset" />
          </mxGeometry>
        </mxCell>
        <mxCell id="FyRuQgIOp2cZwO5rzVj5-38" value="" style="graphMlID=e0;rounded=0;endArrow=block;strokeColor=#000080;strokeWidth=1.0;startArrow=oval;startFill=1;endFill=1;entryX=0.5;entryY=0;entryDx=0;entryDy=0;" parent="1" target="y_OlSuZiI7DkMi86MfuV-3" edge="1">
          <mxGeometry relative="1" as="geometry">
            <mxPoint x="481.97" y="101.58183758898736" as="sourcePoint" />
            <mxPoint x="885" y="510" as="targetPoint" />
            <Array as="points" />
          </mxGeometry>
        </mxCell>
        <mxCell id="FyRuQgIOp2cZwO5rzVj5-39" value="&lt;span style=&quot;color: rgb(0, 0, 128); font-family: dialog; background-color: rgb(248, 249, 250);&quot;&gt;&lt;font style=&quot;font-size: 14px;&quot;&gt;cbo:reject&lt;/font&gt;&lt;/span&gt;" style="text;html=1;align=center;verticalAlign=middle;resizable=0;points=[];labelBackgroundColor=#ffffff;" parent="FyRuQgIOp2cZwO5rzVj5-38" vertex="1" connectable="0">
          <mxGeometry x="-0.0174" y="2" relative="1" as="geometry">
            <mxPoint x="423" y="192" as="offset" />
          </mxGeometry>
        </mxCell>
        <mxCell id="y_OlSuZiI7DkMi86MfuV-3" value="cbo:Perceived&#xa;validity" style="graphMlID=n4;shape=rect;rounded=1;arcsize=30;fillColor=#ffff00;strokeColor=#000000;strokeWidth=1.0" parent="1" vertex="1">
          <mxGeometry x="400" y="70" width="90" height="54" as="geometry" />
        </mxCell>
        <mxCell id="FyRuQgIOp2cZwO5rzVj5-40" value="" style="graphMlID=e0;rounded=0;endArrow=block;strokeColor=#000080;strokeWidth=1.0;startArrow=oval;startFill=1;endFill=1;entryX=0.5;entryY=0;entryDx=0;entryDy=0;exitX=0.5;exitY=1;exitDx=0;exitDy=0;" parent="1" source="y_OlSuZiI7DkMi86MfuV-2" target="y_OlSuZiI7DkMi86MfuV-4" edge="1">
          <mxGeometry relative="1" as="geometry">
            <mxPoint x="490" y="450.08183758898736" as="sourcePoint" />
            <mxPoint x="641" y="450" as="targetPoint" />
          </mxGeometry>
        </mxCell>
        <mxCell id="FyRuQgIOp2cZwO5rzVj5-41" value="&lt;span style=&quot;color: rgb(0, 0, 128); font-family: dialog; background-color: rgb(248, 249, 250);&quot;&gt;&lt;font style=&quot;font-size: 14px;&quot;&gt;news:owns&lt;/font&gt;&lt;/span&gt;" style="text;html=1;align=center;verticalAlign=middle;resizable=0;points=[];labelBackgroundColor=#ffffff;" parent="FyRuQgIOp2cZwO5rzVj5-40" vertex="1" connectable="0">
          <mxGeometry x="-0.0174" y="2" relative="1" as="geometry">
            <mxPoint as="offset" />
          </mxGeometry>
        </mxCell>
        <mxCell id="FyRuQgIOp2cZwO5rzVj5-42" value="" style="graphMlID=e0;rounded=0;endArrow=block;strokeColor=#000080;strokeWidth=1.0;startArrow=oval;startFill=1;endFill=1;exitX=0.5;exitY=1;exitDx=0;exitDy=0;entryX=0.5;entryY=0;entryDx=0;entryDy=0;" parent="1" source="YJrsoGPwztKFer1XiHZF-12" target="y_OlSuZiI7DkMi86MfuV-2" edge="1">
          <mxGeometry relative="1" as="geometry">
            <mxPoint x="509" y="310.08183758898736" as="sourcePoint" />
            <mxPoint x="660" y="310" as="targetPoint" />
          </mxGeometry>
        </mxCell>
        <mxCell id="FyRuQgIOp2cZwO5rzVj5-43" value="&lt;span style=&quot;color: rgb(0, 0, 128); font-family: dialog; background-color: rgb(248, 249, 250);&quot;&gt;&lt;font style=&quot;font-size: 14px;&quot;&gt;cbo:involves&lt;/font&gt;&lt;/span&gt;" style="text;html=1;align=center;verticalAlign=middle;resizable=0;points=[];labelBackgroundColor=#ffffff;" parent="FyRuQgIOp2cZwO5rzVj5-42" vertex="1" connectable="0">
          <mxGeometry x="-0.0174" y="2" relative="1" as="geometry">
            <mxPoint as="offset" />
          </mxGeometry>
        </mxCell>
        <mxCell id="FyRuQgIOp2cZwO5rzVj5-45" value="" style="graphMlID=e0;rounded=0;endArrow=block;strokeColor=#000080;strokeWidth=1.0;startArrow=oval;startFill=1;endFill=1;exitX=0.5;exitY=1;exitDx=0;exitDy=0;entryX=0.5;entryY=0;entryDx=0;entryDy=0;" parent="1" source="y_OlSuZiI7DkMi86MfuV-1" target="YJrsoGPwztKFer1XiHZF-6" edge="1">
          <mxGeometry relative="1" as="geometry">
            <mxPoint x="490" y="350.08183758898736" as="sourcePoint" />
            <mxPoint x="641" y="350" as="targetPoint" />
          </mxGeometry>
        </mxCell>
        <mxCell id="FyRuQgIOp2cZwO5rzVj5-46" value="&lt;span style=&quot;color: rgb(0, 0, 128); font-family: dialog; background-color: rgb(248, 249, 250);&quot;&gt;&lt;font style=&quot;font-size: 14px;&quot;&gt;news:owns&lt;/font&gt;&lt;/span&gt;" style="text;html=1;align=center;verticalAlign=middle;resizable=0;points=[];labelBackgroundColor=#ffffff;" parent="FyRuQgIOp2cZwO5rzVj5-45" vertex="1" connectable="0">
          <mxGeometry x="-0.0174" y="2" relative="1" as="geometry">
            <mxPoint as="offset" />
          </mxGeometry>
        </mxCell>
        <mxCell id="FyRuQgIOp2cZwO5rzVj5-47" value="Prefixes" style="graphMlID=n0;shape=swimlane;startSize=20;fillColor=#b7b69e;strokeColor=#000000;strokeWidth=1.0;align=right;spacingRight=10;fontStyle=1" parent="1" vertex="1">
          <mxGeometry x="240" y="640" width="719.9964524373497" height="200" as="geometry" />
        </mxCell>
        <mxCell id="FyRuQgIOp2cZwO5rzVj5-48" value="&lt;div style=&quot;&quot;&gt;&lt;b style=&quot;background-color: initial;&quot;&gt;foaf:&lt;/b&gt;&lt;br&gt;&lt;/div&gt;&lt;b&gt;&lt;div style=&quot;&quot;&gt;&lt;b style=&quot;background-color: initial;&quot;&gt;actpat:&lt;/b&gt;&lt;/div&gt;&lt;div style=&quot;&quot;&gt;&lt;b style=&quot;background-color: initial;&quot;&gt;fao:&lt;/b&gt;&lt;/div&gt;&lt;div style=&quot;&quot;&gt;&lt;b style=&quot;background-color: initial;&quot;&gt;news:&lt;/b&gt;&lt;/div&gt;&lt;div style=&quot;&quot;&gt;&lt;b style=&quot;background-color: initial;&quot;&gt;cbo:&lt;/b&gt;&lt;/div&gt;&lt;div style=&quot;&quot;&gt;&lt;b style=&quot;background-color: initial;&quot;&gt;exob:&lt;/b&gt;&lt;/div&gt;&lt;div style=&quot;&quot;&gt;&lt;b style=&quot;background-color: initial;&quot;&gt;class:&lt;/b&gt;&lt;br&gt;&lt;/div&gt;&lt;div style=&quot;&quot;&gt;fs:&lt;/div&gt;&lt;div style=&quot;&quot;&gt;&lt;b style=&quot;background-color: initial;&quot;&gt;rdfs:&lt;/b&gt;&lt;br&gt;&lt;/div&gt;&lt;div style=&quot;&quot;&gt;&lt;b style=&quot;background-color: initial;&quot;&gt;db:&lt;/b&gt;&lt;/div&gt;&lt;/b&gt;" style="text;html=1;align=center;verticalAlign=middle;resizable=0;points=[];autosize=1;fontFamily=Courier New;" parent="FyRuQgIOp2cZwO5rzVj5-47" vertex="1">
          <mxGeometry x="-0.003547562650267011" y="29.99953721049043" width="70" height="160" as="geometry" />
        </mxCell>
        <mxCell id="FyRuQgIOp2cZwO5rzVj5-49" value="&lt;div style=&quot;border-color: var(--border-color);&quot;&gt;&lt;span style=&quot;background-color: initial;&quot;&gt;http://xmlns.com/foaf/0.1/&lt;/span&gt;&lt;br&gt;&lt;/div&gt;http://descartes-core.org/ontologies/activities/1.0/ActivityPattern.owl#&lt;div style=&quot;border-color: var(--border-color);&quot;&gt;http://www.fao.org/aims/aos/aos.owl&amp;nbsp;&lt;br&gt;&lt;/div&gt;&lt;div style=&quot;border-color: var(--border-color);&quot;&gt;&lt;/div&gt;&lt;span style=&quot;text-align: center;&quot;&gt;http://semantic.cs.put.poznan.pl/ontologies/newsreportingevent.owl&amp;nbsp;&lt;/span&gt;&lt;b style=&quot;text-align: center; background-color: initial; border-color: var(--border-color);&quot;&gt;&lt;span style=&quot;border-color: var(--border-color);&quot;&gt;&lt;span style=&quot;border-color: var(--border-color);&quot;&gt;&amp;nbsp;&lt;/span&gt;&lt;/span&gt;&lt;/b&gt;&lt;span style=&quot;text-align: center;&quot;&gt;&lt;br&gt;&lt;/span&gt;&lt;span style=&quot;text-align: center; background-color: initial; border-color: var(--border-color);&quot;&gt;&lt;span style=&quot;border-color: var(--border-color);&quot;&gt;&lt;span style=&quot;border-color: var(--border-color);&quot;&gt;https://github.com/corrado877/CognitiveBiasOntologies/tree/main/Masked_man_fallacy&lt;b&gt;&amp;nbsp; &amp;nbsp;&amp;nbsp;&lt;/b&gt;&lt;/span&gt;&lt;/span&gt;&lt;/span&gt;&lt;span style=&quot;text-align: center;&quot;&gt;&lt;br&gt;&lt;/span&gt;&lt;span style=&quot;text-align: center;&quot;&gt;http://modellingdh.github.io/ont/odp/term/&lt;/span&gt;&lt;b&gt;&amp;nbsp;&lt;/b&gt;&lt;br&gt;http://www.ontologydesignpatterns.org/cp/owl/classification.owl&lt;br&gt;https://w3id.org/framester/data/framestercore/&amp;nbsp;&lt;br&gt;&lt;span style=&quot;font-weight: normal; background-color: initial;&quot;&gt;http://www.w3.org/2002/07/owl#&lt;/span&gt;&lt;span style=&quot;border-color: var(--border-color); text-align: center;&quot;&gt;&lt;/span&gt;&lt;span style=&quot;text-align: center;&quot;&gt;http://www.w3.org/2000/01/rdf-schema&lt;/span&gt;&lt;span style=&quot;text-align: center; background-color: initial;&quot;&gt;#&lt;/span&gt;&lt;div&gt;http://dbpedia.org/resource/Knowledge&lt;span style=&quot;text-align: center; background-color: initial;&quot;&gt;&lt;br&gt;&lt;/span&gt;&lt;/div&gt;" style="text;html=1;align=left;verticalAlign=middle;resizable=0;points=[];autosize=1;fontFamily=Courier New;" parent="FyRuQgIOp2cZwO5rzVj5-47" vertex="1">
          <mxGeometry x="79.99645243734973" y="29.99953721049055" width="640" height="160" as="geometry" />
        </mxCell>
      </root>
    </mxGraphModel>
  </diagram>
</mxfile>
